# AST/ASF file generated using VICON BodyLanguage
# -----------------------------------------------
:version 1.10
:name VICON
:units
  mass 1.0
  length 0.45
  angle deg
:documentation
   .ast/.asf automatically generated from VICON data using
   VICON BodyBuilder and BodyLanguage model FoxedUp or BRILLIANT.MOD
:root
   order TX TY TZ RX RY RZ
   axis XYZ
   position 0 0 0  
   orientation 0 0 0 
:bonedata
  begin
     id 1 
     name lhipjoint
     direction 0.578396 -0.714046 0.394458 
     length 2.21935 
     axis 0 0 0  XYZ
  end
  begin
     id 2 
     name lfemur
     direction 0.34202 -0.939693 0  
     length 6.39105  
     axis 0 0 20  XYZ
    dof rx ry rz
    limits (-160.0 20.0)
           (-70.0 70.0)
           (-60.0 70.0)
  end
  begin
     id 3 
     name ltibia
     direction 0.34202 -0.939693 0   
     length 6.99037   
     axis 0 0 20   XYZ
    dof rx
    limits (-10.0 170.0)
  end
  begin
     id 4 
     name lfoot
     direction 0.0582372 -0.160005 0.985397   
     length 2.06111   
     axis -90 7.62852e-016 20   XYZ
    dof rx rz
    limits (-45.0 90.0)
           (-70.0 20.0)
  end
  begin
     id 5 
     name ltoes
     direction 1.53556e-011 -4.21875e-011 1   
     length 1.04074   
     axis -90 7.62852e-016 20   XYZ
    dof rx
    limits (-90.0 20.0)
  end
  begin
     id 6 
     name rhipjoint
     direction -0.558179 -0.726269 0.40121   
     length 2.182  
     axis 0 0 0  XYZ 
  end
  begin
     id 7 
     name rfemur
     direction -0.34202 -0.939693 0   
     length 6.51172   
     axis 0 0 -20   XYZ
    dof rx ry rz
    limits (-160.0 20.0)
           (-70.0 70.0)
           (-70.0 60.0)
  end
  begin
     id 8 
     name rtibia
     direction -0.34202 -0.939693 0   
     length 7.02607   
     axis 0 0 -20   XYZ
    dof rx
    limits (-10.0 170.0)
 end
 begin
     id 9 
     name rfoot
     direction -0.0788856 -0.216737 0.973038   
     length 1.96734  
     axis -90 -7.62852e-016 -20   XYZ
    dof rx rz
    limits (-45.0 90.0)
           (-20.0 70.0)
  end
  begin
     id 10 
     name rtoes
     direction -1.53567e-011 -4.21783e-011 1   
     length 0.990825   
     axis -90 -7.62852e-016 -20   XYZ
    dof rx
    limits (-90.0 20.0)
  end
  begin
     id 11 
     name lowerback
     direction 0.00668177 0.999323 -0.0361741   
     length 1.7655   
     axis 0 0 0   XYZ
    dof rx ry rz
    limits (-20.0 45.0)
           (-30.0 30.0)
           (-30.0 30.0)
  end
  begin
     id 12 
     name upperback
     direction -0.00222086 0.99851 0.0545167   
     length 1.74912   
     axis 0 0 0   XYZ
    dof rx ry rz
    limits (-20.0 45.0)
           (-30.0 30.0)
           (-30.0 30.0)
  end
  begin
     id 13 
     name thorax
     direction -0.00733971 0.997496 0.0703443   
     length 1.75715   
     axis 0 0 0   XYZ
    dof rx ry rz
    limits (-20.0 45.0)
           (-30.0 30.0)
           (-30.0 30.0)
  end
  begin
     id 14 
     name lowerneck
     direction 0.0279797 0.994795 0.0979765   
     length 1.46939   
     axis 0 0 0   XYZ
    dof rx ry rz
    limits (-20.0 45.0)
           (-30.0 30.0)
           (-30.0 30.0)
  end
  begin
     id 15 
     name upperneck
     direction 0.00339187 0.976776 -0.214238   
     length 1.48018   
     axis 0 0 0   XYZ
    dof rx ry rz
    limits (-20.0 45.0)
           (-30.0 30.0)
           (-30.0 30.0)
  end
  begin
     id 16
     name head
     direction -0.00263506 0.996603 -0.0823096  
     length 1.4976  
     axis 0 0 0   XYZ
    dof rx ry rz
    limits (-20.0 45.0)
           (-30.0 30.0)
           (-30.0 30.0)
  end
  begin
     id 17 
     name lclavicle
     direction 0.894044 0.44508 -0.0508781  
     length 3.03024  
     axis 0 0 0   XYZ
    dof ry rz
    limits (-20.0 10.0)
           (0.0 20.0)
  end
  begin
     id 18 
     name lhumerus
     direction 1 -4.48961e-011 -2.39475e-018   
     length 4.4661   
     axis 180 -30 -90   XYZ
    dof rx ry rz
    limits (-60.0 90.0)
           (-90.0 90.0)
           (-90.0 90.0)
  end
  begin
     id 19
     name lradius
     direction 1 -4.48961e-011 9.29328e-028   
     length 3.41414   
     axis 180 -30 -90   XYZ
    dof rx
    limits (-10.0 170.0)
  end
  begin
     id 20
     name lwrist
     direction 1 -4.48985e-011 1.53461e-026   
     length 1.70707   
     axis -1.09697e-014 90 90   XYZ
    dof ry
    limits (-180.0 0.0)
 end
  begin
     id 21 
     name lhand
     direction 1 -4.48966e-011 3.06923e-026   
     length 0.328298   
     axis -1.95843e-014 90 90   XYZ
    dof rx rz
    limits (-90.0 90.0)
           (-45.0 45.0)
  end
  begin
     id 22 
     name lfingers
     direction 1 -4.48893e-011 6.13845e-026   
     length 0.264682   
     axis -3.91686e-014 90 90   XYZ
    dof rx
    limits (0.0 90.0)
  end
  begin
     id 23
     name lthumb
     direction 0.707107 -6.34876e-011 0.707107   
     length 0.380032   
     axis -90 45 2.85299e-015   XYZ
    dof rx rz
    limits (-45.0 45.0)
           (-45.0 45.0)
  end
  begin
     id 24 
     name rclavicle
     direction -0.936955 0.347862 -0.0332887   
     length 3.26927  
     axis 0 0 0   XYZ 
    dof ry rz
    limits (-10.0 20.0)
           (-20.0 0.0)
  end
  begin
     id 25 
     name rhumerus
     direction -1 -4.4896e-011 1.78637e-018  
     length 4.40431   
     axis 180 30 90   XYZ
    dof rx ry rz
    limits (-90.0 60.0)
           (-90.0 90.0)
           (-90.0 90.0)
  end
  begin
     id 26 
     name rradius
     direction -1 -4.48955e-011 9.34036e-027   
     length 3.04688   
     axis 180 30 90   XYZ
    dof rx
    limits (-10.0 170.0)
  end
  begin
     id 27 
     name rwrist
     direction -1 -4.49011e-011 1.53461e-026   
     length 1.52344   
     axis -1.09697e-014 -90 -90   XYZ
    dof ry
    limits (-180.0 0.0)
  end
  begin
     id 28
     name rhand
     direction -1 -4.48834e-011 3.06923e-026   
     length 0.500489   
     axis -1.95843e-014 -90 -90   XYZ
    dof rx rz
    limits (-90.0 90.0)
           (-45.0 45.0)
  end
  begin
     id 29
     name rfingers
     direction -1 -4.48967e-011 6.13845e-026   
     length 0.403507   
     axis -3.91686e-014 -90 -90   XYZ
    dof rx
    limits (0.0 90.0)
  end
  begin
     id 30
     name rthumb
     direction -0.707107 -6.34826e-011 0.707107   
     length 0.579358   
     axis -90 -45 -2.85299e-015   XYZ
    dof rx rz
    limits (-45.0 45.0)
           (-45.0 45.0)
  end
:hierarchy
  begin
    root lhipjoint rhipjoint lowerback
    lhipjoint lfemur
    lfemur ltibia
    ltibia lfoot
    lfoot ltoes
    rhipjoint rfemur
    rfemur rtibia
    rtibia rfoot
    rfoot rtoes
    lowerback upperback
    upperback thorax
    thorax lowerneck lclavicle rclavicle
    lowerneck upperneck
    upperneck head
    lclavicle lhumerus
    lhumerus lradius
    lradius lwrist
    lwrist lhand lthumb
    lhand lfingers
    rclavicle rhumerus
    rhumerus rradius
    rradius rwrist
    rwrist rhand rthumb
    rhand rfingers
  end

#!OML:ASF H:\IndianDance\Patient Classification 1\Patient 1\Session 1\dancer.ASF
:FULLY-SPECIFIED
:DEGREES
749
root 5.20334 15.5677 5.91852 32.3504 -82.097 -25.6384
lowerback 6.60805 7.56233 3.19386
upperback -6.98239 10.4591 -0.604193
thorax -10.473 4.75733 -3.95798
lowerneck -9.80068 16.5614 15.6974
upperneck 16.088 20.5062 -2.75843
head 8.49321 10.4553 -0.861011
rclavicle -7.44449e-014 -1.39149e-014
rhumerus -26.4058 43.6852 -31.1395
rradius 132.212
rwrist -103.713
rhand 1.62863 4.02744
rfingers 7.12502
rthumb 27.1494 -24.0397
lclavicle -7.44449e-014 -1.39149e-014
lhumerus 10.3789 -37.5543 3.3799
lradius 75.453
lwrist 20.9001
lhand -3.22102 20.3933
lfingers 7.12502
lthumb 22.5018 -670.898
rfemur -26.9842 -20.4799 12.1794
rtibia 64.6423
rfoot -8.80597 -16.9139
rtoes 9.8547
lfemur -26.2578 16.6481 -0.40661
ltibia 46.9705
lfoot -19.3113 14.7024
ltoes -0.108771
750
root 5.20945 15.5151 6.06553 31.6062 -82.6344 -24.8655
lowerback 6.55995 7.7047 3.04438
upperback -7.03183 10.6232 -0.69904
thorax -10.496 4.84238 -3.99756
lowerneck -9.78529 16.5524 15.705
upperneck 16.1777 20.4711 -2.62548
head 8.50472 10.4519 -0.82395
rclavicle 7.03449e-014 5.66536e-015
rhumerus -25.9471 44.6011 -30.5409
rradius 132.451
rwrist -102.993
rhand 2.9361 3.99659
rfingers 7.12502
rthumb 28.3995 -23.8688
lclavicle 7.03449e-014 5.66536e-015
lhumerus 10.8607 -37.2027 3.12311
lradius 71.6873
lwrist 18.6929
lhand -3.36467 19.7187
lfingers 7.12502
lthumb 22.3639 -671.556
rfemur -28.3554 -21.782 12.295
rtibia 69.8061
rfoot -9.51029 -15.5569
rtoes 8.25239
lfemur -24.3736 15.4854 -0.734024
ltibia 42.6202
lfoot -19.0159 15.8473
ltoes -0.777782
751
root 5.21347 15.4472 6.2105 30.3968 -83.0269 -23.6474
lowerback 6.50901 7.78901 2.90363
upperback -7.09109 10.7129 -0.761144
thorax -10.539 4.8908 -3.99873
lowerneck -9.76666 16.541 15.6819
upperneck 16.3273 20.4344 -2.46109
head 8.52939 10.4496 -0.771679
rclavicle -9.62366e-014 -2.69353e-014
rhumerus -25.3778 45.5327 -29.8884
rradius 132.677
rwrist -101.996
rhand 4.03952 3.97277
rfingers 7.12502
rthumb 29.4534 -23.7121
lclavicle -9.62366e-014 -2.69353e-014
lhumerus 11.2967 -36.8616 2.95634
lradius 67.9661
lwrist 16.8528
lhand -3.5122 19.1641
lfingers 7.12502
lthumb 22.2223 -672.093
rfemur -29.5474 -23.2519 12.4517
rtibia 74.9606
rfoot -10.1217 -14.1206
rtoes 6.60085
lfemur -22.5891 14.2394 -1.09843
ltibia 38.4086
lfoot -18.1634 16.9338
ltoes -3.40646
752
root 5.21623 15.3653 6.35374 28.6649 -83.2681 -21.9297
lowerback 6.47704 7.81282 2.78178
upperback -7.16104 10.7267 -0.79419
thorax -10.6134 4.90032 -3.97407
lowerneck -9.77029 16.528 15.622
upperneck 16.5564 20.3934 -2.26015
head 8.57689 10.4468 -0.699228
rclavicle -1.27353e-013 -1.86858e-014
rhumerus -24.689 46.4638 -29.1648
rradius 132.896
rwrist -100.695
rhand 4.92018 3.96612
rfingers 7.12502
rthumb 30.2938 -23.5675
lclavicle -1.27353e-013 -1.86858e-014
lhumerus 11.6646 -36.5296 2.88485
lradius 64.3286
lwrist 15.4143
lhand -3.81675 18.7498
lfingers 7.12502
lthumb 21.9299 -672.473
rfemur -30.5198 -24.9171 12.6243
rtibia 80.0126
rfoot -10.608 -12.6123
rtoes 4.9302
lfemur -20.9836 12.9968 -1.49786
ltibia 34.5983
lfoot -16.8157 17.7412
ltoes -7.05635
753
root 5.21893 15.2738 6.49441 26.4515 -83.3523 -19.7457
lowerback 6.4925 7.78107 2.6781
upperback -7.25072 10.6718 -0.805643
thorax -10.7443 4.87275 -3.93735
lowerneck -9.79079 16.5061 15.5206
upperneck 16.8385 20.3388 -2.02562
head 8.63641 10.4387 -0.610073
rclavicle -6.9059e-014 -2.29596e-014
rhumerus -23.9182 47.3693 -28.4055
rradius 133.094
rwrist -99.084
rhand 5.60883 3.97205
rfingers 7.12502
rthumb 30.9505 -23.4389
lclavicle -6.9059e-014 -2.29596e-014
lhumerus 11.9645 -36.1742 2.92258
lradius 60.7945
lwrist 14.2413
lhand -4.27528 18.495
lfingers 7.12502
lthumb 21.4896 -672.677
rfemur -31.2455 -26.7782 12.8066
rtibia 84.8695
rfoot -10.9562 -10.9945
rtoes 3.30698
lfemur -19.7391 11.8788 -1.93577
ltibia 31.5325
lfoot -14.9686 18.0925
ltoes -10.8202
754
root 5.22281 15.1786 6.63071 23.9329 -83.2838 -17.2725
lowerback 6.59349 7.69603 2.58585
upperback -7.36388 10.5517 -0.797686
thorax -10.9594 4.80884 -3.89389
lowerneck -9.7915 16.474 15.3818
upperneck 17.1151 20.2762 -1.77548
head 8.68453 10.4269 -0.51512
rclavicle -8.02531e-014 -2.32578e-014
rhumerus -23.0926 48.227 -27.661
rradius 133.247
rwrist -97.1524
rhand 6.16778 3.98638
rfingers 7.12502
rthumb 31.4832 -23.3219
lclavicle -8.02531e-014 -2.32578e-014
lhumerus 12.1811 -35.7425 3.09517
lradius 57.3368
lwrist 13.0294
lhand -4.93661 18.1882
lfingers 7.12502
lthumb 20.8543 -672.913
rfemur -31.6956 -28.8067 13.0087
rtibia 89.4463
rfoot -11.1743 -9.22642
rtoes 1.68162
lfemur -19.0431 11.0896 -2.40963
ltibia 29.5879
lfoot -12.9592 17.8291
ltoes -14.9131
755
root 5.22854 15.084 6.76042 21.3184 -83.0824 -14.7148
lowerback 6.79404 7.56409 2.48863
upperback -7.49631 10.3731 -0.774203
thorax -11.2644 4.71296 -3.84067
lowerneck -9.75976 16.4342 15.2081
upperneck 17.3443 20.2131 -1.52677
head 8.70726 10.4134 -0.421779
rclavicle 1.31841e-013 2.95195e-014
rhumerus -22.2422 49.0178 -27.0008
rradius 133.335
rwrist -94.9141
rhand 6.63406 4.01207
rfingers 7.12502
rthumb 31.9273 -23.2084
lclavicle 1.31841e-013 2.95195e-014
lhumerus 12.3026 -35.1417 3.4325
lradius 53.9401
lwrist 11.5307
lhand -5.59593 17.8137
lfingers 7.12502
lthumb 20.2208 -673.219
rfemur -31.8672 -30.9603 13.2455
rtibia 93.6822
rfoot -11.2745 -7.26219
rtoes 0.102195
lfemur -19.0357 10.8255 -2.92259
ltibia 29.0144
lfoot -11.2189 16.8167
ltoes -18.3625
756
root 5.23581 14.9925 6.8816 18.698 -82.7899 -12.1523
lowerback 7.07339 7.40604 2.36428
upperback -7.63223 10.1581 -0.754753
thorax -11.6281 4.59898 -3.78311
lowerneck -9.709 16.3832 15.0033
upperneck 17.4841 20.1435 -1.29453
head 8.69392 10.3933 -0.336992
rclavicle -5.86442e-014 -7.60351e-015
rhumerus -21.452 49.7079 -26.5216
rradius 133.356
rwrist -92.3544
rhand 7.02892 4.05424
rfingers 7.12502
rthumb 32.3032 -23.0904
lclavicle -5.86442e-014 -7.60351e-015
lhumerus 12.3662 -34.2858 3.91842
lradius 50.6013
lwrist 9.61512
lhand -6.09756 17.3142
lfingers 7.12502
lthumb 19.7386 -673.668
rfemur -31.7866 -33.1797 13.5249
rtibia 97.5448
rfoot -11.2915 -5.0897
rtoes -1.41781
lfemur -19.7288 11.172 -3.491
ltibia 29.7975
lfoot -10.1052 15.1451
ltoes -20.6251
757
root 5.24377 14.9037 6.99231 15.7204 -82.4673 -9.21863
lowerback 7.38466 7.24159 2.12345
upperback -7.74965 9.91591 -0.76795
thorax -12.0063 4.48073 -3.6952
lowerneck -9.65854 16.327 14.781
upperneck 17.5109 20.072 -1.08963
head 8.64259 10.3677 -0.264461
rclavicle -2.15402e-015 9.69075e-016
rhumerus -20.7681 50.2804 -26.2909
rradius 133.304
rwrist -89.3772
rhand 7.34385 4.1486
rfingers 7.12502
rthumb 32.6029 -22.9346
lclavicle -2.15402e-015 9.69075e-016
lhumerus 12.4113 -33.0899 4.54157
lradius 47.3094
lwrist 7.34818
lhand -6.30316 16.7393
lfingers 7.12502
lthumb 19.5409 -674.223
rfemur -31.4999 -35.4111 13.7927
rtibia 101.038
rfoot -11.2893 -2.72162
rtoes -2.80214
lfemur -20.9838 12.0646 -4.18028
ltibia 31.6422
lfoot -9.7066 13.0632
ltoes -21.5386
758
root 5.25161 14.8159 7.09166 12.0673 -82.1455 -5.58296
lowerback 7.67975 7.08533 1.70154
upperback -7.82749 9.65097 -0.839235
thorax -12.3503 4.36821 -3.56044
lowerneck -9.63819 16.2712 14.5343
upperneck 17.419 20.002 -0.906831
head 8.55546 10.3377 -0.19908
rclavicle 1.28489e-013 3.50358e-014
rhumerus -20.2257 50.74 -26.334
rradius 133.203
rwrist -85.8799
rhand 7.53352 4.35907
rfingers 7.12502
rthumb 32.7834 -22.6866
lclavicle 1.28489e-013 3.50358e-014
lhumerus 12.4714 -31.5372 5.24648
lradius 44.1063
lwrist 4.94754
lhand -6.16803 16.1396
lfingers 7.12502
lthumb 19.6708 -674.836
rfemur -31.0489 -37.6221 14.0038
rtibia 104.175
rfoot -11.2906 -0.210493
rtoes -3.88852
lfemur -22.5825 13.3148 -5.03922
ltibia 34.1071
lfoot -9.85432 10.8717
ltoes -21.3995
759
root 5.25744 14.7287 7.18065 7.61867 -81.85 -1.13046
lowerback 7.91864 6.9546 1.08365
upperback -7.85259 9.3791 -0.986648
thorax -12.6166 4.27195 -3.38535
lowerneck -9.63716 16.2144 14.2914
upperneck 17.202 19.9314 -0.761523
head 8.43344 10.3027 -0.150185
rclavicle -1.6651e-013 -2.48481e-014
rhumerus -19.8479 51.1125 -26.6453
rradius 133.076
rwrist -81.7607
rhand 7.54465 4.70872
rfingers 7.12502
rthumb 32.794 -22.3347
lclavicle -1.6651e-013 -2.48481e-014
lhumerus 12.5747 -29.6748 5.97278
lradius 41.035
lwrist 2.64599
lhand -5.71711 15.6798
lfingers 7.12502
lthumb 20.1043 -675.34
rfemur -30.4428 -39.7604 14.1294
rtibia 106.948
rfoot -11.3034 2.36407
rtoes -4.59511
lfemur -24.2656 14.7273 -6.08534
ltibia 36.7479
lfoot -10.3922 8.82644
ltoes -20.4066
